<?xml version="1.0" encoding="UTF-8" standalone="no"?>
<svg
   xmlns:dc="http://purl.org/dc/elements/1.1/"
   xmlns:cc="http://creativecommons.org/ns#"
   xmlns:rdf="http://www.w3.org/1999/02/22-rdf-syntax-ns#"
   xmlns:svg="http://www.w3.org/2000/svg"
   xmlns="http://www.w3.org/2000/svg"
   xmlns:sodipodi="http://sodipodi.sourceforge.net/DTD/sodipodi-0.dtd"
   xmlns:inkscape="http://www.inkscape.org/namespaces/inkscape"
   width="27"
   height="27"
   shape-rendering="geometricPrecision"
   text-rendering="geometricPrecision"
   image-rendering="optimizeQuality"
   fill-rule="evenodd"
   clip-rule="evenodd"
   version="1.1"
   id="svg4"
   sodipodi:docname="orders-icon.svg"
   inkscape:version="1.0.1 (3bc2e813f5, 2020-09-07)">
  <metadata
     id="metadata10">
    <rdf:RDF>
      <cc:Work
         rdf:about="">
        <dc:format>image/svg+xml</dc:format>
        <dc:type
           rdf:resource="http://purl.org/dc/dcmitype/StillImage" />
        <dc:title></dc:title>
      </cc:Work>
    </rdf:RDF>
  </metadata>
  <defs
     id="defs8">
    <inkscape:path-effect
       effect="spiro"
       id="path-effect908"
       is_visible="true"
       lpeversion="1" />
    <inkscape:path-effect
       effect="spiro"
       id="path-effect904"
       is_visible="true"
       lpeversion="1" />
    <inkscape:path-effect
       effect="spiro"
       id="path-effect900"
       is_visible="true"
       lpeversion="1" />
    <inkscape:path-effect
       effect="spiro"
       id="path-effect896"
       is_visible="true"
       lpeversion="1" />
    <inkscape:path-effect
       effect="spiro"
       id="path-effect892"
       is_visible="true"
       lpeversion="1" />
    <inkscape:path-effect
       effect="spiro"
       id="path-effect888"
       is_visible="true"
       lpeversion="1" />
  </defs>
  <sodipodi:namedview
     pagecolor="#ffffff"
     bordercolor="#666666"
     borderopacity="1"
     objecttolerance="10"
     gridtolerance="10"
     guidetolerance="10"
     inkscape:pageopacity="0"
     inkscape:pageshadow="2"
     inkscape:window-width="1920"
     inkscape:window-height="1001"
     id="namedview6"
     showgrid="false"
     inkscape:zoom="15.703704"
     inkscape:cx="19.698248"
     inkscape:cy="21.675368"
     inkscape:window-x="-9"
     inkscape:window-y="-9"
     inkscape:window-maximized="1"
     inkscape:current-layer="svg4" />
  <path
     id="path995"
     style="color:#000000;font-style:normal;font-variant:normal;font-weight:normal;font-stretch:normal;font-size:medium;line-height:normal;font-family:sans-serif;font-variant-ligatures:normal;font-variant-position:normal;font-variant-caps:normal;font-variant-numeric:normal;font-variant-alternates:normal;font-variant-east-asian:normal;font-feature-settings:normal;font-variation-settings:normal;text-indent:0;text-align:start;text-decoration:none;text-decoration-line:none;text-decoration-style:solid;text-decoration-color:#000000;letter-spacing:normal;word-spacing:normal;text-transform:none;writing-mode:lr-tb;direction:ltr;text-orientation:mixed;dominant-baseline:auto;baseline-shift:baseline;text-anchor:start;white-space:normal;shape-padding:0;shape-margin:0;inline-size:0;clip-rule:nonzero;display:inline;overflow:visible;visibility:visible;isolation:auto;mix-blend-mode:normal;color-interpolation:sRGB;color-interpolation-filters:linearRGB;solid-color:#000000;solid-opacity:1;vector-effect:none;fill:#000000;fill-opacity:1;fill-rule:nonzero;stroke:none;stroke-width:2;stroke-linecap:round;stroke-linejoin:round;stroke-miterlimit:4;stroke-dasharray:none;stroke-dashoffset:4.27465;stroke-opacity:1;paint-order:stroke fill markers;color-rendering:auto;image-rendering:auto;shape-rendering:auto;text-rendering:auto;enable-background:accumulate;stop-color:#000000;stop-opacity:1;opacity:1"
     d="M 11.494141 0.34765625 C 10.213177 0.34765625 9.1543161 1.3808398 9.09375 2.6484375 L 6.1640625 2.6484375 C 4.3213678 2.6484375 2.8085937 4.1648088 2.8085938 6.0078125 L 2.8085938 23.292969 C 2.8085938 25.135972 4.3213673 26.652344 6.1640625 26.652344 L 20.835938 26.652344 C 22.678632 26.652344 24.191406 25.135972 24.191406 23.292969 L 24.191406 6.0078125 C 24.191406 4.1648087 22.678631 2.6484375 20.835938 2.6484375 L 17.90625 2.6484375 C 17.845684 1.3808398 16.786823 0.34765625 15.505859 0.34765625 L 11.494141 0.34765625 z M 11.494141 2.3476562 L 15.505859 2.3476562 C 15.751488 2.3476562 15.917969 2.514138 15.917969 2.7597656 L 15.917969 4.4921875 C 15.917969 4.7378151 15.751488 4.9042969 15.505859 4.9042969 L 11.494141 4.9042969 C 11.248512 4.9042969 11.082031 4.7378151 11.082031 4.4921875 L 11.082031 2.7597656 C 11.082031 2.514138 11.248512 2.3476565 11.494141 2.3476562 z M 6.1640625 4.6484375 L 9.0976562 4.6484375 C 9.1812084 5.8951538 10.228508 6.9042969 11.494141 6.9042969 L 15.505859 6.9042969 C 16.771492 6.9042969 17.818792 5.8951538 17.902344 4.6484375 L 20.835938 4.6484375 C 21.603515 4.6484375 22.191406 5.2370699 22.191406 6.0078125 L 22.191406 23.292969 C 22.191406 24.063711 21.603515 24.652344 20.835938 24.652344 L 6.1640625 24.652344 C 5.3964843 24.652344 4.8085937 24.063711 4.8085938 23.292969 L 4.8085938 6.0078125 C 4.8085938 5.2370698 5.3964838 4.6484375 6.1640625 4.6484375 z M 7.6054688 9.4023438 A 0.99933608 1.0006657 0 0 0 6.6054688 10.402344 A 0.99933608 1.0006657 0 0 0 7.6054688 11.402344 A 0.99933608 1.0006657 0 0 0 8.6035156 10.402344 A 0.99933608 1.0006657 0 0 0 7.6054688 9.4023438 z M 10.722656 9.4023438 A 0.99933611 1.0006657 0 0 0 9.7207031 10.402344 A 0.99933611 1.0006657 0 0 0 10.722656 11.402344 L 19.396484 11.402344 A 0.99933611 1.0006657 0 0 0 20.394531 10.402344 A 0.99933611 1.0006657 0 0 0 19.396484 9.4023438 L 10.722656 9.4023438 z M 7.6054688 14.179688 A 0.99933608 1.0006657 0 0 0 6.6054688 15.181641 A 0.99933608 1.0006657 0 0 0 7.6054688 16.181641 A 0.99933608 1.0006657 0 0 0 8.6035156 15.181641 A 0.99933608 1.0006657 0 0 0 7.6054688 14.179688 z M 10.722656 14.179688 A 0.99933611 1.0006657 0 0 0 9.7207031 15.181641 A 0.99933611 1.0006657 0 0 0 10.722656 16.181641 L 19.396484 16.181641 A 0.99933611 1.0006657 0 0 0 20.394531 15.181641 A 0.99933611 1.0006657 0 0 0 19.396484 14.179688 L 10.722656 14.179688 z M 7.6054688 18.958984 A 0.99933608 1.0006657 0 0 0 6.6054688 19.958984 A 0.99933608 1.0006657 0 0 0 7.6054688 20.958984 A 0.99933608 1.0006657 0 0 0 8.6035156 19.958984 A 0.99933608 1.0006657 0 0 0 7.6054688 18.958984 z M 10.722656 18.958984 A 0.99933611 1.0006657 0 0 0 9.7207031 19.958984 A 0.99933611 1.0006657 0 0 0 10.722656 20.960938 L 19.396484 20.960938 A 0.99933611 1.0006657 0 0 0 20.394531 19.958984 A 0.99933611 1.0006657 0 0 0 19.396484 18.958984 L 10.722656 18.958984 z " />
</svg>
